# Blender 3.4.1
# www.blender.org
mtllib icosphere2.mtl
o Icosphere
v -0.291227 -0.985786 0.177454
v 0.658748 -0.848844 0.114042
v 0.013071 -0.337696 1.020332
v -1.023896 -0.353724 0.179458
v -0.467093 -0.687673 -0.666284
v 0.587357 -0.327729 -0.821511
v 0.235240 0.700735 0.724008
v -0.593228 0.313177 0.821212
v -0.847502 0.523790 -0.279174
v -0.026531 0.334011 -1.018595
v 0.772407 0.675012 0.228666
v -0.161223 1.052847 -0.150343
v 1.043890 0.053589 -0.000000
v 0.587786 -0.000000 0.809017
v -0.587786 0.000000 -0.809017
v 0.688189 0.525736 -0.499997
vn 0.1105 -0.9296 -0.3515
vn 0.8391 -0.3009 0.4532
vn -0.2145 -0.2345 -0.9482
vn 0.4436 0.8665 -0.2288
vn 0.2292 0.7669 -0.5994
vn -0.4027 0.6734 -0.6200
vn -0.6183 0.7331 0.2832
vn -0.3260 0.8164 0.4766
vn 0.2745 0.9286 0.2495
vn 0.8710 0.4516 -0.1932
vn 0.8510 0.0941 -0.5166
vn 0.5255 0.2449 -0.8148
vn -0.5360 0.4541 -0.7117
vn -0.9063 0.3240 0.2714
vn -0.0172 0.2778 0.9605
vn 0.6320 0.3986 0.6646
vn 0.8497 0.1903 0.4917
vn -0.0328 -0.3131 -0.9491
vn -0.9100 -0.0331 -0.4133
vn -0.8514 -0.2456 -0.4635
vn -0.5923 -0.3264 0.7367
vn 0.2173 0.2246 0.9499
vn 0.5431 -0.5043 0.6714
vn 0.8656 -0.4064 -0.2924
vn 0.2169 -0.8457 -0.4876
vn -0.6479 -0.7506 -0.1302
vn -0.5045 -0.5868 0.6333
vn 0.1545 -0.8094 0.5666
vt 0.454545 0.000000
vt 0.254337 0.031854
vt 0.095584 0.055610
vt 0.841216 0.039899
vt 0.500000 0.078731
vt 0.735731 0.110554
vt 0.000000 0.157461
vt 0.863259 0.188110
vt 0.154990 0.190345
vt 0.386671 0.117563
vt 0.312064 0.134338
vt 0.499632 0.189231
vt 0.795146 0.354819
vt 0.841216 0.354819
vt 0.954195 0.280962
vt 0.071303 0.280962
vt 0.226656 0.314921
vt 0.408718 0.283778
vt 0.654793 0.338698
vt 0.682248 0.338698
vt 0.522419 0.432483
vt 0.354218 0.414083
vt 0.181818 0.393651
vt 0.930628 0.435076
vt 0.727272 0.472382
vt 0.636364 0.236191
vt 0.772726 0.236191
vt 0.318182 0.236191
vt 0.545454 0.314921
s 0
usemtl Material.001
f 1/1/1 5/10/1 2/5/1
f 2/6/2 13/26/2 14/27/2
f 5/11/3 15/28/3 10/18/3
f 11/19/4 16/29/4 12/21/4
f 16/29/5 10/18/5 12/21/5
f 10/18/6 9/17/6 12/22/6
f 9/17/7 8/16/7 12/23/7
f 12/24/8 8/15/8 7/14/8
f 7/13/9 11/20/9 12/25/9
f 13/26/10 16/29/10 11/20/10
f 13/26/11 6/12/11 16/29/11
f 6/12/12 10/18/12 16/29/12
f 15/28/13 9/17/13 10/18/13
f 4/9/14 8/16/14 9/17/14
f 3/8/15 7/14/15 8/15/15
f 14/27/16 11/20/16 7/14/16
f 14/27/17 13/26/17 11/20/17
f 6/12/18 5/11/18 10/18/18
f 15/28/19 4/9/19 9/17/19
f 15/28/20 5/11/20 4/9/20
f 4/9/21 3/7/21 8/16/21
f 3/8/22 14/27/22 7/14/22
f 3/8/23 2/6/23 14/27/23
f 2/6/24 6/12/24 13/26/24
f 2/5/25 5/10/25 6/12/25
f 1/2/26 4/9/26 5/11/26
f 1/3/27 3/7/27 4/9/27
f 1/4/28 2/6/28 3/8/28
